<svg width="64" height="64" viewBox="0 0 64 64" fill="none" xmlns="http://www.w3.org/2000/svg">
<mask id="mask0_49_214" style="mask-type:alpha" maskUnits="userSpaceOnUse" x="0" y="0" width="64" height="64">
<rect width="64" height="64" rx="32" fill="#D9D9D9"/>
</mask>
<g mask="url(#mask0_49_214)">
<rect x="-8" y="-1" width="98" height="81" fill="#F9FAFB"/>
<path d="M38.7619 10L46.0238 10.9747V11.462V14.3861L47.9603 22.6709L49.4127 32.4177L49.8968 35.8291V43.6266L46.9921 47.038L41.6667 48.9873L38.2778 50.4494L38.7619 51.424H40.6984L42.1508 53.3734V55.3228L47.9603 56.7848L58.127 61.5V85.0506L40.2143 87L4.87302 84.076L1 54.3481H7.77778L12.619 53.3734L16.0079 51.9114L18.4286 48.9873L19.881 49.962H21.3333L21.8175 48.9873L22.3016 46.0633L21.8175 45.0886L18.4286 41.1899L16.4921 38.2658H16.0079L14.0714 36.8038L12.619 33.3924L14.0714 30.4684L15.0397 27.5443L18.4286 13.4114L38.7619 10Z" fill="#F9FAFB"/>
<path fill-rule="evenodd" clip-rule="evenodd" d="M17.2482 6.44845C18.6199 5.57996 20.6701 4.7064 22.2812 4.71838L29.3063 4.71838C31.8228 4.98053 35.3353 4.71838 38.5707 4.89548L39.3978 4.91221C40.4925 4.93205 42.7003 4.95277 43.8377 4.97274L43.9034 4.97392C44.4615 4.98403 45.0195 4.98808 45.5776 5.00527L45.6594 5.0081C46.0775 5.02525 46.4253 5.08534 46.7527 5.36842C46.9192 5.51189 46.9842 5.7307 46.9689 5.93912L46.9665 5.96624L47.7951 6.03604C48.3578 6.08382 48.6554 6.56864 48.4318 7.05924L48.4206 7.08298C47.2538 9.64644 47.7204 10.2633 47.5077 11.1383C47.3961 11.5985 47.3065 12.0658 47.2538 12.5362C47.2118 12.9065 47.2076 13.2777 46.9928 13.6034C46.5346 14.2983 45.2459 14.2922 45.2228 13.308C45.2217 13.2767 45.2228 13.2463 45.2259 13.217C41.9828 13.0804 37.5551 13.0936 34.3162 13.2797C31.291 13.4537 28.2796 13.8482 25.3155 14.4521C24.5647 14.6048 23.8161 14.7717 23.0727 14.9528C22.463 15.1005 21.7144 15.1885 21.1689 15.5051C20.5582 15.8611 20.5698 16.4994 20.6361 17.1074C20.7073 17.7517 20.8261 17.4197 20.9943 18.0069L21.0047 18.044C21.1784 18.6813 21.3932 19.3115 21.6775 19.9103C21.8397 20.2522 22.1009 20.581 22.0018 20.9745C21.946 21.196 21.7637 21.4327 21.5964 21.5875C20.834 22.2905 19.5453 21.8424 19.0272 22.8054C18.485 23.8123 18.4716 25.1764 18.4256 26.2906L18.4228 26.3559C18.3892 27.1236 18.3986 27.8934 18.4512 28.6592C18.4986 29.357 18.6923 30.048 18.4439 30.7187C18.2627 31.2062 17.671 31.2517 17.3614 30.8552C17.3259 30.8097 17.2933 30.763 17.2628 30.7161L17.233 30.6691L17.231 30.6701C17.2603 30.7146 17.2877 30.7602 17.314 30.8067C17.3425 30.8583 17.2719 30.9149 17.2288 30.8704C16.5001 30.1087 15.4356 30.2604 14.6111 30.7935C13.7761 31.3357 13.4465 32.3655 13.4033 33.2891C13.3549 34.3136 13.4497 35.5145 13.894 36.4612C14.0815 36.8618 14.3488 37.23 14.7922 37.3827C14.9934 37.4515 15.185 37.4424 15.3945 37.4586C15.6124 37.4747 15.8746 37.58 16.0862 37.5658C16.3612 37.547 16.6081 37.8486 16.53 38.1013L16.5243 38.1181C16.5202 38.1302 16.5159 38.1424 16.5118 38.1535C16.5222 38.1626 16.5327 38.1737 16.5401 38.1899C17.3404 39.7608 18.4376 41.1588 19.6506 42.4556C20.2582 43.104 20.932 43.6998 21.6364 44.2511C21.9839 44.5232 22.3504 44.7954 22.7368 45.0148C22.8653 45.0865 22.9831 45.1352 23.1275 45.1747C23.1948 45.1928 23.2717 45.2019 23.337 45.2232L23.4048 45.2455C23.4094 45.2469 23.4138 45.2483 23.4181 45.2495C23.6118 45.2707 23.775 45.3941 23.8392 45.5873C24.0067 46.0911 23.7024 46.5362 23.1822 46.6747C22.6186 46.8261 22.0875 46.5603 21.6408 46.2551L21.6112 46.2347C20.7004 45.6046 19.8612 44.8975 19.1346 44.072C17.6973 42.4424 16.7969 40.5559 16.3802 38.4691C16.2769 38.6825 16.1379 38.8687 15.8968 38.9981C15.5219 39.2005 15.0744 39.2005 14.6637 39.1327C13.8372 38.9981 13.1327 38.5136 12.6621 37.8581C12.1734 37.1784 11.9913 36.353 11.8808 35.5488C11.7713 34.7435 11.7176 33.9354 11.8271 33.1282C11.9841 31.9689 12.4904 30.8229 13.4749 30.1876C12.7379 28.645 12.6084 26.9153 12.661 25.226C12.7252 23.1463 12.6618 21.0389 12.9493 18.9783L13.159 15.0988L13.4749 12.8445C13.6722 11.4664 13.6182 11.1546 14.1551 9.85616C14.6847 8.57656 16.0352 7.21621 17.2482 6.44845ZM14.3194 33.3345C15.6693 32.7053 17.1277 33.2849 17.8542 34.5059C18.4859 35.5674 16.6077 36.269 16.2943 35.1748L16.2853 35.1411C16.0789 34.3127 15.2386 33.5965 14.3616 33.4852C14.2889 33.4752 14.2351 33.3741 14.3194 33.3345Z" fill="#111827"/>
<path fill-rule="evenodd" clip-rule="evenodd" d="M46.115 14.1147C46.1111 14.0369 46.2168 14.0279 46.2366 14.0966C47.3923 18.1861 48.1047 21.3731 48.8547 25.5658L49.0761 26.7991C49.668 30.0886 50.266 33.3829 50.7709 36.6884L50.8005 36.8858C51.0535 38.5968 51.1993 40.3245 50.8822 42.039C50.586 43.6417 49.7765 45.111 48.7255 46.2811C46.6943 48.5427 43.8714 49.9553 41.0317 50.5869C39.5958 50.9062 38.1146 51.0295 36.6513 50.9183C35.9219 50.8637 35.1936 50.7535 34.4795 50.5909L34.4006 50.5729C33.6807 50.4064 33.0418 50.2078 32.6594 49.4823C32.5633 49.2995 32.602 48.9862 32.8039 48.8923C33.185 48.7163 33.4652 48.6427 33.8812 48.6932C34.2784 48.7416 34.6663 48.87 35.0587 48.9499C35.8088 49.1025 36.5711 49.1791 37.3343 49.1974C38.8335 49.2328 40.3364 49.0317 41.7695 48.5527C44.2318 47.7292 46.7339 46.1538 48.1727 43.7973C49.8651 41.0252 49.1912 37.6608 48.7427 34.5994L48.7292 34.5067C48.2752 31.3776 47.8263 28.2484 47.3905 25.1172L47.2046 23.7752C46.716 20.2293 46.2546 17.698 46.115 14.1147Z" fill="#111827"/>
<path fill-rule="evenodd" clip-rule="evenodd" d="M50.8496 29.6207C50.5516 30.3634 50.098 31.1365 49.5433 31.7615C47.2992 33.5015 45.1186 32.5381 44.0114 30.1798C43.5907 28.5133 44.7077 26.7181 45.8913 25.4921C47.6007 23.9234 50.3905 24.7467 51.1764 26.6116C51.2242 26.8532 51.2531 27.0942 51.2669 27.3345C51.2505 28.1152 51.1478 28.7825 50.8496 29.5242M29.2789 28.123C32.2352 24.9033 37.766 24.7312 37.6248 29.6867C36.9898 35.9592 26.296 34.4196 29.2789 28.123ZM51.7795 25.4371C51.6759 25.2764 51.5609 25.121 51.4354 24.9723C51.389 24.947 51.3623 24.7228 51.1918 24.7062C48.9126 22.4039 44.9086 23.7101 43.4619 26.0042C43.1976 26.2943 42.9821 26.6338 42.8232 26.9926C41.3977 26.7532 39.7359 26.7997 38.4101 27.2927C37.0955 24.1497 33.1155 23.8691 30.4927 25.212C28.8614 25.9466 27.8037 27.485 26.2172 28.3301C22.4876 28.5759 18.4849 27.8108 14.8226 28.6674C11.9344 29.2172 14.3488 30.5563 14.8332 29.6626C18.286 28.7286 22.3766 29.5179 25.9616 29.3074C26.3344 29.8848 27.0492 30.3572 27.7616 30.337C28.5311 36.5823 38.478 35.5467 38.8211 29.995C39.2103 29.4316 39.6943 28.8924 40.3872 28.5414C40.6524 28.4911 40.9086 28.4258 41.1428 28.3246C41.5431 28.2729 42.1598 28.4283 42.528 28.7334C43.7894 35.6633 51.0564 34.8562 52.3551 28.7853C52.3809 28.7612 52.4531 28.6707 52.5085 28.5254C52.9531 27.9873 54.0413 27.7872 53.8674 26.8787C53.7126 25.9701 52.4593 25.9809 51.7795 25.4371Z" fill="#111827"/>
<path fill-rule="evenodd" clip-rule="evenodd" d="M37.3659 42.2723C36.4195 42.0624 35.5757 41.7155 34.9595 41.2742C34.7453 41.1207 34.6903 40.9594 34.7359 40.8123C34.7872 40.6469 34.9718 40.4975 35.223 40.3978C35.475 40.2978 35.7899 40.2493 36.0941 40.276C36.3584 40.2991 36.6213 40.3773 36.8289 40.5382L36.8723 40.5704C37.2386 40.8367 37.7164 41.056 38.2613 41.1983C38.7865 41.3354 39.3742 41.4009 39.9828 41.3667C41.1419 41.3018 41.942 40.9711 42.7927 40.5211C42.8982 40.4643 43.0037 40.4057 43.1098 40.3461C43.1768 40.292 43.2697 40.2574 43.3727 40.2395C43.4871 40.2196 43.6164 40.2213 43.7348 40.2438C43.8489 40.2655 43.9509 40.3062 44.0192 40.3601C44.084 40.4113 44.1207 40.4743 44.1084 40.5466C44.0288 41.0163 43.5661 41.4338 42.9098 41.7604C42.1809 42.1232 41.2156 42.3723 40.3074 42.4573C39.3068 42.5509 38.288 42.4767 37.3659 42.2723ZM41.2682 32.8295C42.0714 33.1768 43.4495 34.1607 43.2642 35.7876C42.9063 37.2906 41.3115 36.2731 40.545 35.8288C39.8672 35.5139 39.7255 36.9871 40.3946 37.3978C45.8793 40.4487 44.741 31.772 41.3534 32.0589C40.9803 32.0904 41.0487 32.7119 41.2682 32.8295ZM34.9471 21.2094L35.153 21.2248C35.7898 21.2739 36.5729 21.3678 36.8594 22.0256C37.0114 22.3744 36.9494 22.9287 36.5715 23.1197C35.9068 23.4559 35.3615 23.1065 34.7064 22.9716C34.1665 22.8605 33.6305 22.8187 33.0763 22.8414C31.8606 22.891 30.7753 23.2912 29.6292 23.743C29.4788 23.8022 29.3974 23.5888 29.4918 23.4746C30.3614 22.4232 31.6934 21.728 32.9257 21.419C33.5834 21.2541 34.2808 21.1586 34.9471 21.2094ZM43.2207 20.7974L43.376 20.7626C45.07 20.391 47.3844 20.1562 48.8733 21.4812C49.0089 21.7041 49.0028 21.7685 48.9942 21.8129L48.9914 21.8276C48.9847 21.8651 48.9869 21.9114 48.9094 21.9873C48.8807 21.9927 48.8516 21.9978 48.822 22.0026C48.4454 22.0637 48.1214 22.0553 47.8036 22.038L47.4584 22.0181C47.0584 21.9959 46.6584 21.9813 46.2592 22.0198C45.4074 22.1022 44.5705 22.2726 43.7616 22.5354C43.5863 22.5924 43.3986 22.6061 43.2243 22.5595C43.0589 22.5153 42.9039 22.419 42.7775 22.2533C42.6138 22.0388 42.5461 21.8497 42.5631 21.578C42.576 21.3739 42.6493 21.2019 42.7631 21.0691C42.8791 20.9337 43.0384 20.8392 43.2207 20.7974Z" fill="#111827"/>
<path fill-rule="evenodd" clip-rule="evenodd" d="M33.7649 29.0286C33.5217 28.8679 33.2355 28.8127 32.9184 28.9618C32.6706 29.0781 32.2359 29.4662 31.9334 29.9762C31.7265 30.3252 31.5797 30.7345 31.6103 31.1609C31.6174 31.26 31.582 31.333 31.5261 31.387C31.4819 31.4296 31.4182 31.4609 31.3433 31.4707C31.2797 31.479 31.2086 31.4715 31.1507 31.4529C31.0406 31.4174 30.9824 31.3437 30.9604 31.2835C30.7487 30.7026 30.8399 30.0543 31.0773 29.4695C31.3976 28.6802 31.9794 28.0191 32.3605 27.806C33.0127 27.4411 33.7821 27.4243 34.4353 27.796C34.9913 28.1124 35.3389 28.6231 35.6847 29.1438C35.7582 29.2545 35.8312 29.3643 35.9066 29.4723C36.0577 29.6885 36.0727 29.903 36.0142 30.087C35.9494 30.2907 35.7841 30.4627 35.5774 30.5527C35.3863 30.6359 35.1646 30.6476 34.9684 30.5621C34.8027 30.4899 34.6506 30.3492 34.5543 30.1104C34.3922 29.7082 34.1221 29.2645 33.7649 29.0286Z" fill="#111827"/>
<path fill-rule="evenodd" clip-rule="evenodd" d="M46.9523 30.0342C46.8379 30.1231 46.7483 30.1499 46.6214 30.0932C46.5512 30.0617 46.4818 30.0015 46.4274 29.9204C46.3736 29.8402 46.3348 29.7403 46.3197 29.6295C46.2825 29.3561 46.1822 29.1002 46.0393 28.9334C45.9171 28.7908 45.7629 28.7153 45.5919 28.7579C45.4073 28.8038 45.2314 28.9804 45.1103 29.1885C45.0699 29.2581 45.0381 29.3372 45.0062 29.4158C44.9466 29.5627 44.8886 29.6992 44.8063 29.8071C44.7751 29.8482 44.7281 29.8766 44.6825 29.8766C44.664 29.8766 44.6452 29.8721 44.6273 29.8638C44.4436 29.5888 44.4083 29.3803 44.4142 29.1734C44.4204 28.9564 44.4778 28.7368 44.5705 28.5318C44.7879 28.051 45.2007 27.6569 45.4793 27.5676C45.8608 27.4453 46.2397 27.5921 46.5435 27.9098C46.856 28.2368 47.0876 28.7444 47.1598 29.3165C47.1772 29.4543 47.1698 29.603 47.1346 29.7319C47.1003 29.8579 47.0403 29.9658 46.9523 30.0342Z" fill="#111827"/>
<path fill-rule="evenodd" clip-rule="evenodd" d="M17.7814 48.7248C18.0325 48.5024 18.4041 48.7819 18.2445 49.0823C17.8859 49.7574 17.5181 50.3971 17.0368 50.9939C16.745 51.3558 16.4325 51.698 16.1157 52.0365C16.9286 52.7397 17.6258 53.6128 18.2842 54.4311C19.126 55.4776 19.922 56.5685 20.867 57.5262C21.799 58.4706 22.8295 59.1308 24.0756 59.571L24.3273 59.6584C25.579 60.0979 26.9169 60.6913 27.6224 61.8765C27.7616 62.1102 27.4814 62.399 27.2459 62.2531C26.0199 61.494 24.5793 61.3413 23.2447 60.8397C21.9556 60.3552 20.8318 59.6095 19.8388 58.6577C18.8475 57.7076 18.0152 56.6265 17.147 55.5683C16.2885 54.522 15.3641 53.6284 14.3486 52.7431C12.7815 53.7973 10.9928 54.256 9.17387 54.7066L8.97533 54.7557C7.15425 55.2066 5.34292 55.7302 3.63445 56.5154C2.12814 57.2075 0.646572 58.0341 -0.580415 59.1604C-1.88289 60.3557 -2.89661 61.8824 -3.82445 63.3754C-5.89991 66.7156 -7.35904 70.3749 -8.64359 74.0787C-9.97962 77.9312 -11.0971 81.8609 -11.9993 85.8372C-12.4581 87.8598 -12.8308 89.8968 -13.137 91.948C-13.2845 92.936 -13.4154 93.926 -13.5305 94.9182C-13.6532 95.9777 -13.6814 97.0678 -14.0065 98.0865C-14.1458 98.5231 -14.4749 98.7043 -14.8042 98.6889L-14.8711 99.5255C-14.9598 100.641 -15.0425 101.757 -15.0704 102.879C-15.1168 104.745 -15.0958 106.606 -14.9615 108.468L-14.9425 108.722C-14.837 110.081 -14.6013 111.608 -13.5793 112.603C-12.5209 113.634 -10.8933 113.958 -9.46679 113.977C-6.14432 114.02 -2.9461 112.45 -0.00603294 111.073C3.0219 109.655 5.96711 108.08 8.84175 106.373C10.3057 105.503 11.7538 104.605 13.1835 103.68C13.8851 103.226 14.5817 102.765 15.2731 102.296C15.6691 102.027 16.0444 101.733 16.4476 101.494C16.25 101.31 16.1618 101.021 16.3273 100.769C15.1619 99.757 14.6768 97.9518 14.6201 96.4911C14.5743 95.312 14.7478 94.1363 14.8847 92.9684C14.9538 92.3794 15.0392 91.7915 15.1278 91.2052C15.1628 90.9735 15.1895 90.7258 15.2304 90.4813C12.0835 92.2106 8.84836 93.7507 5.52757 95.1189C3.82539 95.8202 2.1014 96.4508 0.353611 97.0287L-0.000637054 97.1452C-1.65667 97.6873 -3.35233 98.1994 -5.06434 98.5093C-5.15587 98.5259 -5.23021 98.3907 -5.13249 98.3476C-3.46407 97.6114 -1.73788 96.9905 -0.0444069 96.3125L0.23387 96.1992C0.201891 96.1974 0.168756 96.193 0.134155 96.1847C-0.85901 95.945 -1.84441 95.5756 -2.8185 95.2646C-3.72254 94.976 -4.73824 94.7947 -5.58325 94.3589C-5.64826 94.3254 -5.61188 94.235 -5.54855 94.2307C-4.59879 94.1648 -3.56777 94.4416 -2.63658 94.6045L-2.28676 94.6658C-1.70074 94.7691 -1.10171 94.8802 -0.518552 95.025C-0.497477 94.8297 -0.388326 94.6335 -0.23304 94.5185C1.47575 93.253 1.30222 90.6971 1.48497 88.8124L1.62049 87.4132C1.85887 84.9643 2.11105 82.5158 2.49418 80.0852C2.51463 79.9554 2.71542 79.9926 2.71626 80.1152C2.73602 83.1281 2.50858 86.1271 2.39458 89.1353L2.37692 89.6288C2.3139 91.485 2.26451 93.4124 1.09545 94.8407C1.25891 94.7452 1.47994 94.7452 1.61237 94.9027C1.7751 95.0963 1.86905 95.3138 1.86611 95.5272C2.9225 95.0843 3.97428 94.6298 5.02092 94.1662C8.38596 92.6754 11.6804 91.0071 14.8878 89.2019C15.2329 89.0076 15.561 89.1603 15.7317 89.4165L15.7564 89.4129C15.7605 89.4124 15.7647 89.412 15.7689 89.4119L15.7934 89.4108C15.7943 89.4108 15.7953 89.4109 15.7961 89.4109C16.2476 89.1628 16.8627 89.3395 17.2501 89.7014C17.2615 89.7123 17.2713 89.724 17.2815 89.7355C17.772 89.5153 18.2299 89.2181 18.6456 88.8414C19.4961 88.0705 20.2166 87.1173 20.8447 86.1614C22.0013 84.4009 22.9838 82.4432 24.5462 80.9941C25.8156 79.8167 27.3895 79.0837 29.0406 78.6235C29.0337 78.5752 29.0521 78.5238 29.0855 78.4897C29.1703 78.4027 29.2308 78.3727 29.3404 78.4254C29.3491 78.4297 29.3543 78.4356 29.3579 78.4419L29.519 78.1666C29.6069 78.0172 29.6972 77.8667 29.7285 77.8272C29.916 77.5912 30.1089 77.3569 30.3048 77.1276C30.6369 76.7394 31.0153 76.3562 31.4534 76.087C32.4128 75.4976 33.4214 75.8311 34.4078 76.1532C35.0038 76.3479 35.5977 76.5489 36.1927 76.7466L36.2541 76.7666C36.6977 76.9092 37.2168 77.0338 37.4152 77.5038C37.4937 77.6898 37.5059 77.8829 37.4693 78.0702C41.6827 76.9987 46.3624 77.4909 50.474 78.7488C50.6318 78.797 50.7894 78.9268 50.8227 79.0973C51.2938 81.5132 51.5036 83.9908 51.2904 86.4479C51.1065 88.5688 50.6366 90.6473 49.751 92.5891L49.7006 92.6987C48.8684 94.4983 47.5493 96.7166 45.5347 97.2806C44.3183 97.6212 42.973 97.4204 41.7324 97.358C40.5267 97.2973 39.2942 97.2885 38.1 97.0989C37.0363 96.9301 36.1044 96.4533 35.4471 95.5885C34.88 94.8424 34.5814 93.9407 34.3368 93.0436C34.2248 93.0793 34.1136 93.1171 34.0041 93.16C33.542 93.3405 33.1505 93.6318 32.7965 93.9745C32.049 94.6984 31.4692 95.5776 30.6871 96.2684C29.9791 96.8937 29.1724 97.38 28.307 97.7539C26.5139 98.5287 24.5903 98.8383 22.6936 99.2489L22.5613 99.2778C21.1334 99.5911 19.676 99.9758 18.4156 100.719C18.391 100.938 18.2913 101.144 18.1315 101.279C18.3538 101.488 18.4479 101.818 18.2526 102.128C17.707 102.994 16.7671 103.487 15.9233 104.041L15.8685 104.077C15.0384 104.627 14.2012 105.166 13.3571 105.695C11.6412 106.769 9.88944 107.784 8.11292 108.755C5.25558 110.316 2.3369 111.788 -0.634624 113.124C-0.456269 114.001 -0.52144 114.906 -0.387383 115.789L-0.366831 115.915C-0.309565 116.243 -0.386919 116.518 -0.612727 116.732L-0.636617 116.754L-0.636198 116.751L-0.657377 116.77L-0.664457 116.776L-0.662096 116.774C-0.688126 116.798 -0.714981 116.82 -0.742352 116.839L-0.777224 116.862C-0.994711 116.994 -1.27472 116.992 -1.4974 116.876L-1.52283 116.862L-1.56561 116.837C-1.85983 116.668 -2.06272 116.249 -1.94067 115.915C-1.64069 115.097 -1.52734 114.223 -1.25032 113.399L-1.47009 113.497L-1.75975 113.623C-4.89253 114.978 -8.37242 116.119 -11.7858 115.195C-13.294 114.787 -14.7037 113.924 -15.4583 112.517C-16.2008 111.132 -16.3058 109.524 -16.3452 107.984C-16.3939 106.083 -16.292 104.153 -16.0413 102.268C-15.873 101.003 -15.6695 99.7136 -15.3555 98.4616C-15.517 98.3191 -15.6357 98.1147 -15.667 97.8616C-15.8152 96.6658 -15.5559 95.4225 -15.3971 94.2329C-15.2421 93.0713 -15.0707 91.9121 -14.877 90.7564C-14.4858 88.4225 -14.0312 86.0935 -13.502 83.7869C-12.5603 79.6818 -11.3166 75.6497 -9.8193 71.714L-9.68818 71.3712C-8.3046 67.7738 -6.70262 64.2531 -4.47192 61.0928C-3.40483 59.5808 -2.27683 58.21 -0.769046 57.1205C0.64353 56.0996 2.23687 55.3646 3.88117 54.8028C5.52725 54.2406 7.21916 53.8639 8.94094 53.6295C10.6896 53.3915 12.5353 53.2455 14.1665 52.5284C13.9601 52.1584 14.1372 51.659 14.4845 51.4296C15.6532 50.6575 16.7339 49.653 17.7814 48.7248ZM55.1934 82.3009C55.2424 82.2265 55.3587 82.2735 55.3372 82.3615C54.7688 84.6902 54.2352 87.0236 53.8867 89.3967C53.2578 93.6799 53.3735 98.019 53.4249 102.334L53.4275 102.557C53.4539 104.881 53.4906 107.206 53.5675 109.529C53.6063 110.703 53.683 111.889 53.6413 113.063C53.6185 113.701 53.4487 114.303 53.3885 114.933C53.3357 115.484 53.3827 116.043 53.409 116.594C53.4267 116.961 52.8856 116.945 52.8488 116.594L52.8018 116.14C52.7406 115.566 52.6651 114.995 52.4768 114.445C52.2504 113.784 52.1418 113.134 52.0633 112.44C51.943 111.376 51.8895 110.301 51.843 109.23L51.8113 108.489C51.6174 104.011 51.6242 99.5124 51.9381 95.0394L51.961 94.72C52.2718 90.4919 52.8111 85.9235 55.1934 82.3009ZM43.0772 55.6529C42.9287 55.5919 42.9807 55.3674 43.1451 55.4065L43.4441 55.4778C45.635 56.0026 47.7861 56.5711 49.831 57.5476C51.8772 58.5246 53.6095 59.9832 54.986 61.7768C57.6619 65.2633 58.7738 69.5004 59.6517 73.7335C60.6272 78.4373 61.5154 83.1583 62.4995 87.8606L62.6822 88.7365C63.5927 93.1162 64.4524 97.4983 65.0859 101.93L65.1314 102.251C65.7702 106.808 66.1544 111.523 65.4574 116.092C65.3195 116.996 63.8153 116.771 63.8741 115.878C64.044 113.296 64.1656 110.728 64.048 108.14C63.9304 105.552 63.6877 102.975 63.3258 100.41C63.0213 98.2511 62.5674 96.119 62.1657 93.9772L62.1027 93.639C61.7663 91.8173 61.4196 89.9974 61.0736 88.1774L60.5565 85.4525C59.7815 81.3724 58.9914 77.2887 58.0986 73.2342L58.0456 72.9956C57.1719 69.0949 55.8838 65.0088 53.263 61.9113C50.6034 58.7677 46.7961 57.1845 43.0772 55.6529ZM33.4132 97.0275C33.4772 96.8851 33.7009 96.9007 33.7697 97.0275C34.0392 97.5248 34.0692 98.1595 34.1201 98.7209L34.1255 98.7787C34.1903 99.4637 34.2476 100.151 34.2828 100.838C34.3494 102.142 34.3812 103.445 34.3771 104.751C34.3729 106.089 34.346 107.426 34.2739 108.762L34.2543 109.121C34.1884 110.282 34.078 111.577 33.5262 112.592C33.3256 112.962 32.78 112.853 32.6638 112.48C32.2832 111.258 32.4787 109.809 32.5763 108.557L32.6521 107.58C32.7272 106.603 32.7987 105.626 32.8555 104.648C32.9333 103.31 32.9975 101.971 33.0592 100.632C33.0793 100.197 33.101 99.7626 33.1239 99.3278L33.1592 98.6757C33.1893 98.1303 33.1867 97.5318 33.4132 97.0275ZM-9.38217 98.7597L-9.21368 98.5969C-8.69644 98.0907 -8.04281 97.3111 -7.27816 97.3595C-6.97325 97.3788 -6.77896 97.6319 -6.84219 97.9319C-6.97724 98.5732 -7.63141 98.906 -8.10231 99.2975C-8.61818 99.7262 -9.10438 100.185 -9.58964 100.647C-10.0201 101.058 -10.4342 101.479 -10.8382 101.915L-10.9893 102.078C-11.1342 102.236 -12.1656 103.169 -12.0541 103.411L-12.048 103.422C-12.017 103.469 -12.0687 103.532 -12.1202 103.516C-12.5656 103.375 -12.5378 102.994 -12.3694 102.607C-12.0458 101.864 -11.4792 101.176 -10.9844 100.541C-10.4909 99.9083 -9.95683 99.3188 -9.38217 98.7597ZM35.0272 80.1218C34.6828 79.3077 33.414 79.3248 32.6936 79.3735C30.8797 79.496 28.9171 79.955 27.3031 80.8028C25.6298 81.6818 24.5026 83.0902 23.4941 84.6475L23.4469 84.7206C22.4639 86.2487 21.5172 88.0575 19.978 89.1081C19.194 89.6434 18.2785 90.1321 17.3273 90.3438C17.262 90.4586 17.1562 90.5495 17.0174 90.5825L16.9529 90.5973C16.682 90.6571 16.2611 90.7233 15.8976 90.6837C15.9 90.8615 15.8981 91.038 15.9026 91.2065C15.9154 91.6894 15.9209 92.1743 15.9209 92.6575C15.9211 93.6698 15.8667 94.6842 15.9089 95.6964C15.9464 96.5918 16.0728 97.5272 16.5027 98.3276C16.818 98.9148 17.2342 99.3033 17.7365 99.6743C18.9723 98.9212 20.3697 98.4621 21.7879 98.1169C23.5031 97.6995 25.2593 97.4209 26.9355 96.8549C27.7422 96.5824 28.5178 96.2258 29.2205 95.7415C29.9663 95.2272 30.536 94.5314 31.1221 93.8508L31.2137 93.7451C31.8119 93.059 32.4646 92.4026 33.31 92.0307C34.038 91.7102 34.9975 91.6532 35.634 91.1574C35.9668 90.898 35.9947 90.5216 36.0297 90.1362C35.6221 90.1945 35.1905 90.1011 34.7842 90.0535L34.5737 90.0287C34.1895 89.9831 33.8141 89.9329 33.4359 89.8351C33.3656 89.817 33.3656 89.7111 33.4359 89.693C33.8829 89.5775 34.3259 89.5284 34.7842 89.4747L34.8918 89.4612C35.3065 89.4069 35.7423 89.3248 36.149 89.4161C36.2219 89.1384 36.3273 88.8733 36.4752 88.6078C36.6827 88.2349 37.0753 87.812 37.1284 87.3764C37.1442 87.2462 37.1139 87.0928 37.0526 86.9778L37.0314 86.9386C37.0057 86.8923 36.9751 86.8457 36.9304 86.8169C36.9255 86.8226 36.915 86.8292 36.8923 86.8364C36.5793 86.9349 36.3062 86.7817 36.1613 86.5456C35.5462 86.6219 34.8748 86.5962 34.2979 86.6217L33.7146 86.6499C33.0913 86.6785 32.4398 86.691 31.8541 86.5651C31.7723 86.5476 31.7476 86.4115 31.8294 86.3765C32.5495 86.0685 33.4229 85.9703 34.1938 85.852C34.6243 85.7858 35.058 85.7355 35.4897 85.6773C35.7773 85.6385 36.0824 85.5745 36.3803 85.559C37.1271 84.6293 36.7247 83.1626 35.6853 82.7623C35.3067 82.9287 34.9662 82.8319 34.5526 82.7964C34.1397 82.7609 33.7257 82.7369 33.3111 82.7387C32.4804 82.7424 31.6 82.9609 30.7774 82.8668C30.6436 82.8514 30.5192 82.6734 30.6523 82.5648C31.282 82.0509 32.1845 81.8833 32.9839 81.7738L33.1495 81.7516C33.4175 81.7165 33.7434 81.6652 34.0815 81.6347C34.1579 81.4856 34.2951 81.3729 34.5011 81.3449C34.5623 81.3365 34.6239 81.3316 34.6853 81.3264L34.6844 81.3203C35.1868 81.2962 35.165 80.4475 35.0272 80.1218ZM0.628777 95.9993C0.619827 96.0131 0.610033 96.0263 0.599613 96.0389L0.583538 96.0576L0.666828 96.0237L0.628777 95.9993ZM43.7952 78.3027C41.6804 78.0755 39.5624 78.1234 37.4413 78.1844C37.2716 78.7393 36.6811 79.2122 36.1089 79.23C36.557 79.9121 36.6033 80.8352 36.289 81.5586C36.9562 81.8242 37.531 82.3013 37.88 82.9807C38.3639 83.9226 38.3005 84.9707 37.8223 85.8412C38.2305 86.2107 38.4713 86.8108 38.4472 87.3764C38.4203 88.007 38.0444 88.5458 37.732 89.0679C37.3945 89.6327 37.3832 90.1299 37.2795 90.7624C37.1278 91.688 36.5035 92.2494 35.7002 92.6L35.7429 92.768C35.95 93.5741 36.2077 94.4247 36.7996 95.0141C37.561 95.7725 38.7422 95.7654 39.7482 95.8135L39.7968 95.8158C40.718 95.8619 41.6388 95.9159 42.5596 95.968L43.2503 96.0067C44.3106 96.065 45.3288 96.072 46.1944 95.3711C47.6075 94.2269 48.5762 92.3334 49.1894 90.6571C50.4763 87.1387 50.4918 83.2775 49.901 79.6131C47.9198 78.9745 45.8642 78.525 43.7952 78.3027ZM26.2074 84.1401L26.2229 84.1411C26.6584 84.1908 26.9575 84.5435 27.064 84.9617C27.2188 85.5697 27.1429 86.1193 27.5152 86.6681C27.8983 87.2324 28.1338 87.6842 28.1894 88.3814C28.2123 88.6683 28.2018 88.9544 28.2657 89.2352L28.312 89.4319C28.3611 89.6417 28.4014 89.8438 28.3769 90.069C28.3546 90.2744 28.2545 90.4344 28.0485 90.5002C27.3771 90.715 26.8587 90.2203 26.6853 89.5946C26.5355 89.0542 26.7355 88.4102 26.5242 87.9027C26.407 87.6214 26.191 87.3861 26.069 87.1029C25.9481 86.8222 25.8874 86.529 25.868 86.2238C25.8312 85.6467 26.3416 84.9533 26.0568 84.4304C25.9962 84.3189 26.0649 84.1366 26.2074 84.1401ZM20.1934 67.6881C20.6574 67.6893 21.2052 67.586 21.6089 67.8488C21.8163 67.984 21.8712 68.2822 21.6411 68.4342C21.2416 68.698 20.7566 68.6174 20.2945 68.6038L20.2538 68.6028C19.7063 68.5917 19.159 68.5755 18.6119 68.5543C17.5827 68.5142 16.5551 68.4545 15.5285 68.3722C14.4741 68.2877 13.4197 68.1887 12.3696 68.0613L11.9631 68.0118C11.0766 67.9019 10.1582 67.7677 9.32994 67.4578C9.20957 67.4128 9.26688 67.2359 9.37776 67.2256C10.3737 67.1349 11.4178 67.2706 12.4118 67.3501C13.4686 67.4345 14.5251 67.5113 15.5842 67.5623C16.6415 67.6133 17.7 67.6522 18.7583 67.6723C19.2367 67.6815 19.7151 67.6868 20.1934 67.6881ZM33.694 77.2544C33.2951 77.1132 32.8562 76.9039 32.4239 76.9739C31.6784 77.0947 31.0148 77.821 30.4247 78.2994L30.721 78.2418C32.2371 77.9504 34.2449 77.6365 35.5175 78.6004C35.5208 78.5948 35.5233 78.5893 35.527 78.5837C35.6297 78.4277 35.7487 78.306 35.8786 78.1725C35.8911 78.1608 35.9031 78.1487 35.9149 78.1364L35.985 78.0618L35.8247 78.0062C35.4813 77.8849 35.0745 77.7281 35.0102 77.7053L35.0057 77.7037C34.568 77.5554 34.1297 77.4089 33.694 77.2544ZM21.2374 45.4762C21.175 44.6738 22.4239 44.6804 22.4857 45.4762C22.6207 47.2137 22.2297 48.9346 21.3881 50.4578C21.382 50.4689 21.3751 50.4788 21.3686 50.4893C21.895 50.7631 22.4273 51.0259 22.9715 51.2608C23.6676 51.5613 24.3769 51.8349 25.0988 52.0671C25.7518 52.2772 26.5563 52.3601 27.1053 52.7974C28.263 53.7192 27.8281 55.6324 27.6054 56.8725L27.5706 57.0682C27.4597 57.7064 27.3795 58.3611 27.6486 58.9735C27.9359 59.6277 28.5169 60.1129 29.0352 60.581L29.1398 60.6759C29.599 61.0942 30.1236 61.6025 30.4604 62.1695C30.7678 61.5339 31.1869 61.0145 31.63 60.4297C31.9462 60.0124 31.7212 59.8748 31.4941 59.4672C31.2754 59.0748 31.1687 58.6565 31.2371 58.2089C31.3632 57.3823 32.0239 56.7851 32.6815 56.3365C33.4582 55.8069 34.325 55.4145 35.1278 54.9218C36.7776 53.9095 38.3842 52.7522 39.8317 51.4668C39.8717 51.4312 39.9409 51.4778 39.9089 51.5263C38.7655 53.2655 37.4247 54.7684 35.777 56.044C35.1088 56.5613 34.407 56.9903 33.7004 57.4414L33.4973 57.5717C33.2136 57.7555 32.8597 58.0011 32.7314 58.314C32.6023 58.6286 32.8776 58.8662 33.0257 59.1269C33.4962 59.9547 33.2692 60.727 32.7115 61.429L32.6855 61.4613C32.1312 62.1444 31.7112 62.7796 31.5103 63.6521C31.0786 65.5266 31.6799 67.479 32.3093 69.2387L32.3341 69.3081C32.6746 70.2566 33.0364 71.1982 33.3322 72.1619L33.4136 72.4283C33.6816 73.315 33.9011 74.1896 33.6004 75.1011C33.4982 75.4112 33.0753 75.4844 32.8997 75.1926C32.2801 74.1636 32.1257 72.9253 31.7373 71.7939C31.3588 70.6913 30.9242 69.6086 30.5586 68.5015C30.0878 67.076 29.7727 65.5416 29.9437 64.0464C29.9387 64.0377 29.9331 64.0295 29.9289 64.0203L29.8091 63.7581C29.4823 63.0483 29.1666 62.4284 28.5723 61.8626C27.9524 61.2724 27.2796 60.7499 26.7918 60.0355C25.7323 58.4835 26.3876 56.7571 26.5156 55.0602L26.5302 54.8521C26.5534 54.4998 26.5662 54.021 26.336 53.7771C26.0772 53.5026 25.4701 53.4326 25.1266 53.311C24.2389 52.9969 23.3641 52.6309 22.5309 52.1913C21.7378 51.773 20.9696 51.3108 20.2543 50.7693L19.8917 50.4966C19.3197 50.065 18.7265 49.5936 18.3431 49.0061C18.2989 48.9385 18.374 48.8293 18.4542 48.8617C19.0942 49.1214 19.6789 49.5346 20.2778 49.894C20.2871 49.8721 20.2979 49.85 20.3102 49.8277C21.051 48.4869 21.3557 47.0013 21.2374 45.4762ZM41.6819 54.6629C41.9369 53.9637 43.0991 54.0177 43.0527 54.8485C43.0172 55.4868 42.7462 56.063 42.4984 56.6425L42.472 56.7046C42.2161 57.3085 41.9206 57.8754 41.5671 58.4288C40.8915 59.4868 40.1002 60.4686 39.255 61.3952C38.4887 62.2353 37.483 62.749 36.324 62.6636C35.8357 62.6277 35.3428 62.5034 34.9149 62.2595C34.4067 61.9697 33.8547 61.0995 33.2063 61.3103C33.1436 61.3306 33.0851 61.2388 33.1393 61.1953C33.8879 60.5925 34.7375 61.5271 35.4542 61.7523C36.534 62.0915 37.6422 61.7165 38.3373 60.8435C39.063 59.932 39.7309 58.9115 40.3408 57.919C40.6506 57.4151 40.9331 56.8921 41.1772 56.3531C41.4235 55.809 41.4795 55.2177 41.6819 54.6629ZM39.8824 51.0437C39.8424 50.9524 39.9099 50.8459 39.9798 50.8892C40.3855 51.1405 40.764 51.5021 41.1522 51.8085C41.5829 52.1485 42.0146 52.4796 42.4507 52.8036C43.0865 53.2761 42.6703 54.4431 42.088 53.9059C41.2911 53.1712 40.3843 52.1852 39.8824 51.0437ZM37.2608 49.6787C37.4605 49.3517 38.6416 49.4865 38.4695 49.8097L38.4638 49.8195C38.1378 50.3532 38.6021 50.8966 39.5933 51.2426L39.6298 51.2552C40.2568 51.4683 39.3684 51.8408 38.7476 51.6297C37.3922 51.1692 36.8283 50.3868 37.2608 49.6787Z" fill="#111827"/>
<path fill-rule="evenodd" clip-rule="evenodd" d="M17.7814 48.7248C18.0325 48.5024 18.4041 48.7819 18.2445 49.0823C17.8859 49.7574 17.5181 50.3971 17.0368 50.9939C16.745 51.3558 16.4325 51.698 16.1157 52.0365C16.9286 52.7397 17.6258 53.6128 18.2842 54.4311C19.126 55.4776 19.922 56.5685 20.867 57.5262C21.799 58.4706 22.8295 59.1308 24.0756 59.571L24.3273 59.6584C25.579 60.0979 26.9169 60.6913 27.6224 61.8765C27.7616 62.1102 27.4814 62.399 27.2459 62.2531C26.0199 61.494 24.5793 61.3413 23.2447 60.8397C21.9556 60.3552 20.8318 59.6095 19.8388 58.6577C18.8475 57.7076 18.0152 56.6265 17.147 55.5683C16.2885 54.522 15.3641 53.6284 14.3486 52.7431C12.7815 53.7973 10.9928 54.256 9.17387 54.7066L8.97533 54.7557C7.15425 55.2066 5.34292 55.7302 3.63445 56.5154C2.12814 57.2075 0.646572 58.0341 -0.580415 59.1604C-1.88289 60.3557 -2.89661 61.8824 -3.82445 63.3754C-5.89991 66.7156 -7.35904 70.3749 -8.64359 74.0787C-9.97962 77.9312 -11.0971 81.8609 -11.9993 85.8372C-12.4581 87.8598 -12.8308 89.8968 -13.137 91.948C-13.2845 92.936 -13.4154 93.926 -13.5305 94.9182C-13.6532 95.9777 -13.6814 97.0678 -14.0065 98.0865C-14.1458 98.5231 -14.4749 98.7043 -14.8042 98.6889L-14.8711 99.5255C-14.9598 100.641 -15.0425 101.757 -15.0704 102.879C-15.1168 104.745 -15.0958 106.606 -14.9615 108.468L-14.9425 108.722C-14.837 110.081 -14.6013 111.608 -13.5793 112.603C-12.5209 113.634 -10.8933 113.958 -9.46679 113.977C-6.14432 114.02 -2.9461 112.45 -0.00603294 111.073C3.0219 109.655 5.96711 108.08 8.84175 106.373C10.3057 105.503 11.7538 104.605 13.1835 103.68C13.8851 103.226 14.5817 102.765 15.2731 102.296C15.6691 102.027 16.0444 101.733 16.4476 101.494C16.25 101.31 16.1618 101.021 16.3273 100.769C15.1619 99.757 14.6768 97.9518 14.6201 96.4911C14.5743 95.312 14.7478 94.1363 14.8847 92.9684C14.9538 92.3794 15.0392 91.7915 15.1278 91.2052C15.1628 90.9735 15.1895 90.7258 15.2304 90.4813C12.0835 92.2106 8.84836 93.7507 5.52757 95.1189C3.82539 95.8202 2.1014 96.4508 0.353611 97.0287L-0.000637054 97.1452C-1.65667 97.6873 -3.35233 98.1994 -5.06434 98.5093C-5.15587 98.5259 -5.23021 98.3907 -5.13249 98.3476C-3.46407 97.6114 -1.73788 96.9905 -0.0444069 96.3125L0.23387 96.1992C0.201891 96.1974 0.168756 96.193 0.134155 96.1847C-0.85901 95.945 -1.84441 95.5756 -2.8185 95.2646C-3.72254 94.976 -4.73824 94.7947 -5.58325 94.3589C-5.64826 94.3254 -5.61188 94.235 -5.54855 94.2307C-4.59879 94.1648 -3.56777 94.4416 -2.63658 94.6045L-2.28676 94.6658C-1.70074 94.7691 -1.10171 94.8802 -0.518552 95.025C-0.497477 94.8297 -0.388326 94.6335 -0.23304 94.5185C1.47575 93.253 1.30222 90.6971 1.48497 88.8124L1.62049 87.4132C1.85887 84.9643 2.11105 82.5158 2.49418 80.0852C2.51463 79.9554 2.71542 79.9926 2.71626 80.1152C2.73602 83.1281 2.50858 86.1271 2.39458 89.1353L2.37692 89.6288C2.3139 91.485 2.26451 93.4124 1.09545 94.8407C1.25891 94.7452 1.47994 94.7452 1.61237 94.9027C1.7751 95.0963 1.86905 95.3138 1.86611 95.5272C2.9225 95.0843 3.97428 94.6298 5.02092 94.1662C8.38596 92.6754 11.6804 91.0071 14.8878 89.2019C15.2329 89.0076 15.561 89.1603 15.7317 89.4165L15.7564 89.4129C15.7605 89.4124 15.7647 89.412 15.7689 89.4119L15.7934 89.4108C15.7943 89.4108 15.7953 89.4109 15.7961 89.4109C16.2476 89.1628 16.8627 89.3395 17.2501 89.7014C17.2615 89.7123 17.2713 89.724 17.2815 89.7355C17.772 89.5153 18.2299 89.2181 18.6456 88.8414C19.4961 88.0705 20.2166 87.1173 20.8447 86.1614C22.0013 84.4009 22.9838 82.4432 24.5462 80.9941C25.8156 79.8167 27.3895 79.0837 29.0406 78.6235C29.0337 78.5752 29.0521 78.5238 29.0855 78.4897C29.1703 78.4027 29.2308 78.3727 29.3404 78.4254C29.3491 78.4297 29.3543 78.4356 29.3579 78.4419L29.519 78.1666C29.6069 78.0172 29.6972 77.8667 29.7285 77.8272C29.916 77.5912 30.1089 77.3569 30.3048 77.1276C30.6369 76.7394 31.0153 76.3562 31.4534 76.087C32.4128 75.4976 33.4214 75.8311 34.4078 76.1532C35.0038 76.3479 35.5977 76.5489 36.1927 76.7466L36.2541 76.7666C36.6977 76.9092 37.2168 77.0338 37.4152 77.5038C37.4937 77.6898 37.5059 77.8829 37.4693 78.0702C41.6827 76.9987 46.3624 77.4909 50.474 78.7488C50.6318 78.797 50.7894 78.9268 50.8227 79.0973C51.2938 81.5132 51.5036 83.9908 51.2904 86.4479C51.1065 88.5688 50.6366 90.6473 49.751 92.5891L49.7006 92.6987C48.8684 94.4983 47.5493 96.7166 45.5347 97.2806C44.3183 97.6212 42.973 97.4204 41.7324 97.358C40.5267 97.2973 39.2942 97.2885 38.1 97.0989C37.0363 96.9301 36.1044 96.4533 35.4471 95.5885C34.88 94.8424 34.5814 93.9407 34.3368 93.0436C34.2248 93.0793 34.1136 93.1171 34.0041 93.16C33.542 93.3405 33.1505 93.6318 32.7965 93.9745C32.049 94.6984 31.4692 95.5776 30.6871 96.2684C29.9791 96.8937 29.1724 97.38 28.307 97.7539C26.5139 98.5287 24.5903 98.8383 22.6936 99.2489L22.5613 99.2778C21.1334 99.5911 19.676 99.9758 18.4156 100.719C18.391 100.938 18.2913 101.144 18.1315 101.279C18.3538 101.488 18.4479 101.818 18.2526 102.128C17.707 102.994 16.7671 103.487 15.9233 104.041L15.8685 104.077C15.0384 104.627 14.2012 105.166 13.3571 105.695C11.6412 106.769 9.88944 107.784 8.11292 108.755C5.25558 110.316 2.3369 111.788 -0.634624 113.124C-0.456269 114.001 -0.52144 114.906 -0.387383 115.789L-0.366831 115.915C-0.309565 116.243 -0.386919 116.518 -0.612727 116.732L-0.636617 116.754L-0.636198 116.751L-0.657377 116.77L-0.664457 116.776L-0.662096 116.774C-0.688126 116.798 -0.714981 116.82 -0.742352 116.839L-0.777224 116.862C-0.994711 116.994 -1.27472 116.992 -1.4974 116.876L-1.52283 116.862L-1.56561 116.837C-1.85983 116.668 -2.06272 116.249 -1.94067 115.915C-1.64069 115.097 -1.52734 114.223 -1.25032 113.399L-1.47009 113.497L-1.75975 113.623C-4.89253 114.978 -8.37242 116.119 -11.7858 115.195C-13.294 114.787 -14.7037 113.924 -15.4583 112.517C-16.2008 111.132 -16.3058 109.524 -16.3452 107.984C-16.3939 106.083 -16.292 104.153 -16.0413 102.268C-15.873 101.003 -15.6695 99.7136 -15.3555 98.4616C-15.517 98.3191 -15.6357 98.1147 -15.667 97.8616C-15.8152 96.6658 -15.5559 95.4225 -15.3971 94.2329C-15.2421 93.0713 -15.0707 91.9121 -14.877 90.7564C-14.4858 88.4225 -14.0312 86.0935 -13.502 83.7869C-12.5603 79.6818 -11.3166 75.6497 -9.8193 71.714L-9.68818 71.3712C-8.3046 67.7738 -6.70262 64.2531 -4.47192 61.0928C-3.40483 59.5808 -2.27683 58.21 -0.769046 57.1205C0.64353 56.0996 2.23687 55.3646 3.88117 54.8028C5.52725 54.2406 7.21916 53.8639 8.94094 53.6295C10.6896 53.3915 12.5353 53.2455 14.1665 52.5284C13.9601 52.1584 14.1372 51.659 14.4845 51.4296C15.6532 50.6575 16.7339 49.653 17.7814 48.7248ZM55.1934 82.3009C55.2424 82.2265 55.3587 82.2735 55.3372 82.3615C54.7688 84.6902 54.2352 87.0236 53.8867 89.3967C53.2578 93.6799 53.3735 98.019 53.4249 102.334L53.4275 102.557C53.4539 104.881 53.4906 107.206 53.5675 109.529C53.6063 110.703 53.683 111.889 53.6413 113.063C53.6185 113.701 53.4487 114.303 53.3885 114.933C53.3357 115.484 53.3827 116.043 53.409 116.594C53.4267 116.961 52.8856 116.945 52.8488 116.594L52.8018 116.14C52.7406 115.566 52.6651 114.995 52.4768 114.445C52.2504 113.784 52.1418 113.134 52.0633 112.44C51.943 111.376 51.8895 110.301 51.843 109.23L51.8113 108.489C51.6174 104.011 51.6242 99.5124 51.9381 95.0394L51.961 94.72C52.2718 90.4919 52.8111 85.9235 55.1934 82.3009ZM43.0772 55.6529C42.9287 55.5919 42.9807 55.3674 43.1451 55.4065L43.4441 55.4778C45.635 56.0026 47.7861 56.5711 49.831 57.5476C51.8772 58.5246 53.6095 59.9832 54.986 61.7768C57.6619 65.2633 58.7738 69.5004 59.6517 73.7335C60.6272 78.4373 61.5154 83.1583 62.4995 87.8606L62.6822 88.7365C63.5927 93.1162 64.4524 97.4983 65.0859 101.93L65.1314 102.251C65.7702 106.808 66.1544 111.523 65.4574 116.092C65.3195 116.996 63.8153 116.771 63.8741 115.878C64.044 113.296 64.1656 110.728 64.048 108.14C63.9304 105.552 63.6877 102.975 63.3258 100.41C63.0213 98.2511 62.5674 96.119 62.1657 93.9772L62.1027 93.639C61.7663 91.8173 61.4196 89.9974 61.0736 88.1774L60.5565 85.4525C59.7815 81.3724 58.9914 77.2887 58.0986 73.2342L58.0456 72.9956C57.1719 69.0949 55.8838 65.0088 53.263 61.9113C50.6034 58.7677 46.7961 57.1845 43.0772 55.6529ZM33.4132 97.0275C33.4772 96.8851 33.7009 96.9007 33.7697 97.0275C34.0392 97.5248 34.0692 98.1595 34.1201 98.7209L34.1255 98.7787C34.1903 99.4637 34.2476 100.151 34.2828 100.838C34.3494 102.142 34.3812 103.445 34.3771 104.751C34.3729 106.089 34.346 107.426 34.2739 108.762L34.2543 109.121C34.1884 110.282 34.078 111.577 33.5262 112.592C33.3256 112.962 32.78 112.853 32.6638 112.48C32.2832 111.258 32.4787 109.809 32.5763 108.557L32.6521 107.58C32.7272 106.603 32.7987 105.626 32.8555 104.648C32.9333 103.31 32.9975 101.971 33.0592 100.632C33.0793 100.197 33.101 99.7626 33.1239 99.3278L33.1592 98.6757C33.1893 98.1303 33.1867 97.5318 33.4132 97.0275ZM-9.38217 98.7597L-9.21368 98.5969C-8.69644 98.0907 -8.04281 97.3111 -7.27816 97.3595C-6.97325 97.3788 -6.77896 97.6319 -6.84219 97.9319C-6.97724 98.5732 -7.63141 98.906 -8.10231 99.2975C-8.61818 99.7262 -9.10438 100.185 -9.58964 100.647C-10.0201 101.058 -10.4342 101.479 -10.8382 101.915L-10.9893 102.078C-11.1342 102.236 -12.1656 103.169 -12.0541 103.411L-12.048 103.422C-12.017 103.469 -12.0687 103.532 -12.1202 103.516C-12.5656 103.375 -12.5378 102.994 -12.3694 102.607C-12.0458 101.864 -11.4792 101.176 -10.9844 100.541C-10.4909 99.9083 -9.95683 99.3188 -9.38217 98.7597ZM35.0272 80.1218C34.6828 79.3077 33.414 79.3248 32.6936 79.3735C30.8797 79.496 28.9171 79.955 27.3031 80.8028C25.6298 81.6818 24.5026 83.0902 23.4941 84.6475L23.4469 84.7206C22.4639 86.2487 21.5172 88.0575 19.978 89.1081C19.194 89.6434 18.2785 90.1321 17.3273 90.3438C17.262 90.4586 17.1562 90.5495 17.0174 90.5825L16.9529 90.5973C16.682 90.6571 16.2611 90.7233 15.8976 90.6837C15.9 90.8615 15.8981 91.038 15.9026 91.2065C15.9154 91.6894 15.9209 92.1743 15.9209 92.6575C15.9211 93.6698 15.8667 94.6842 15.9089 95.6964C15.9464 96.5918 16.0728 97.5272 16.5027 98.3276C16.818 98.9148 17.2342 99.3033 17.7365 99.6743C18.9723 98.9212 20.3697 98.4621 21.7879 98.1169C23.5031 97.6995 25.2593 97.4209 26.9355 96.8549C27.7422 96.5824 28.5178 96.2258 29.2205 95.7415C29.9663 95.2272 30.536 94.5314 31.1221 93.8508L31.2137 93.7451C31.8119 93.059 32.4646 92.4026 33.31 92.0307C34.038 91.7102 34.9975 91.6532 35.634 91.1574C35.9668 90.898 35.9947 90.5216 36.0297 90.1362C35.6221 90.1945 35.1905 90.1011 34.7842 90.0535L34.5737 90.0287C34.1895 89.9831 33.8141 89.9329 33.4359 89.8351C33.3656 89.817 33.3656 89.7111 33.4359 89.693C33.8829 89.5775 34.3259 89.5284 34.7842 89.4747L34.8918 89.4612C35.3065 89.4069 35.7423 89.3248 36.149 89.4161C36.2219 89.1384 36.3273 88.8733 36.4752 88.6078C36.6827 88.2349 37.0753 87.812 37.1284 87.3764C37.1442 87.2462 37.1139 87.0928 37.0526 86.9778L37.0314 86.9386C37.0057 86.8923 36.9751 86.8457 36.9304 86.8169C36.9255 86.8226 36.915 86.8292 36.8923 86.8364C36.5793 86.9349 36.3062 86.7817 36.1613 86.5456C35.5462 86.6219 34.8748 86.5962 34.2979 86.6217L33.7146 86.6499C33.0913 86.6785 32.4398 86.691 31.8541 86.5651C31.7723 86.5476 31.7476 86.4115 31.8294 86.3765C32.5495 86.0685 33.4229 85.9703 34.1938 85.852C34.6243 85.7858 35.058 85.7355 35.4897 85.6773C35.7773 85.6385 36.0824 85.5745 36.3803 85.559C37.1271 84.6293 36.7247 83.1626 35.6853 82.7623C35.3067 82.9287 34.9662 82.8319 34.5526 82.7964C34.1397 82.7609 33.7257 82.7369 33.3111 82.7387C32.4804 82.7424 31.6 82.9609 30.7774 82.8668C30.6436 82.8514 30.5192 82.6734 30.6523 82.5648C31.282 82.0509 32.1845 81.8833 32.9839 81.7738L33.1495 81.7516C33.4175 81.7165 33.7434 81.6652 34.0815 81.6347C34.1579 81.4856 34.2951 81.3729 34.5011 81.3449C34.5623 81.3365 34.6239 81.3316 34.6853 81.3264L34.6844 81.3203C35.1868 81.2962 35.165 80.4475 35.0272 80.1218ZM0.628777 95.9993C0.619827 96.0131 0.610033 96.0263 0.599613 96.0389L0.583538 96.0576L0.666828 96.0237L0.628777 95.9993ZM43.7952 78.3027C41.6804 78.0755 39.5624 78.1234 37.4413 78.1844C37.2716 78.7393 36.6811 79.2122 36.1089 79.23C36.557 79.9121 36.6033 80.8352 36.289 81.5586C36.9562 81.8242 37.531 82.3013 37.88 82.9807C38.3639 83.9226 38.3005 84.9707 37.8223 85.8412C38.2305 86.2107 38.4713 86.8108 38.4472 87.3764C38.4203 88.007 38.0444 88.5458 37.732 89.0679C37.3945 89.6327 37.3832 90.1299 37.2795 90.7624C37.1278 91.688 36.5035 92.2494 35.7002 92.6L35.7429 92.768C35.95 93.5741 36.2077 94.4247 36.7996 95.0141C37.561 95.7725 38.7422 95.7654 39.7482 95.8135L39.7968 95.8158C40.718 95.8619 41.6388 95.9159 42.5596 95.968L43.2503 96.0067C44.3106 96.065 45.3288 96.072 46.1944 95.3711C47.6075 94.2269 48.5762 92.3334 49.1894 90.6571C50.4763 87.1387 50.4918 83.2775 49.901 79.6131C47.9198 78.9745 45.8642 78.525 43.7952 78.3027ZM26.2074 84.1401L26.2229 84.1411C26.6584 84.1908 26.9575 84.5435 27.064 84.9617C27.2188 85.5697 27.1429 86.1193 27.5152 86.6681C27.8983 87.2324 28.1338 87.6842 28.1894 88.3814C28.2123 88.6683 28.2018 88.9544 28.2657 89.2352L28.312 89.4319C28.3611 89.6417 28.4014 89.8438 28.3769 90.069C28.3546 90.2744 28.2545 90.4344 28.0485 90.5002C27.3771 90.715 26.8587 90.2203 26.6853 89.5946C26.5355 89.0542 26.7355 88.4102 26.5242 87.9027C26.407 87.6214 26.191 87.3861 26.069 87.1029C25.9481 86.8222 25.8874 86.529 25.868 86.2238C25.8312 85.6467 26.3416 84.9533 26.0568 84.4304C25.9962 84.3189 26.0649 84.1366 26.2074 84.1401ZM20.1934 67.6881C20.6574 67.6893 21.2052 67.586 21.6089 67.8488C21.8163 67.984 21.8712 68.2822 21.6411 68.4342C21.2416 68.698 20.7566 68.6174 20.2945 68.6038L20.2538 68.6028C19.7063 68.5917 19.159 68.5755 18.6119 68.5543C17.5827 68.5142 16.5551 68.4545 15.5285 68.3722C14.4741 68.2877 13.4197 68.1887 12.3696 68.0613L11.9631 68.0118C11.0766 67.9019 10.1582 67.7677 9.32994 67.4578C9.20957 67.4128 9.26688 67.2359 9.37776 67.2256C10.3737 67.1349 11.4178 67.2706 12.4118 67.3501C13.4686 67.4345 14.5251 67.5113 15.5842 67.5623C16.6415 67.6133 17.7 67.6522 18.7583 67.6723C19.2367 67.6815 19.7151 67.6868 20.1934 67.6881ZM33.694 77.2544C33.2951 77.1132 32.8562 76.9039 32.4239 76.9739C31.6784 77.0947 31.0148 77.821 30.4247 78.2994L30.721 78.2418C32.2371 77.9504 34.2449 77.6365 35.5175 78.6004C35.5208 78.5948 35.5233 78.5893 35.527 78.5837C35.6297 78.4277 35.7487 78.306 35.8786 78.1725C35.8911 78.1608 35.9031 78.1487 35.9149 78.1364L35.985 78.0618L35.8247 78.0062C35.4813 77.8849 35.0745 77.7281 35.0102 77.7053L35.0057 77.7037C34.568 77.5554 34.1297 77.4089 33.694 77.2544ZM21.2374 45.4762C21.175 44.6738 22.4239 44.6804 22.4857 45.4762C22.6207 47.2137 22.2297 48.9346 21.3881 50.4578C21.382 50.4689 21.3751 50.4788 21.3686 50.4893C21.895 50.7631 22.4273 51.0259 22.9715 51.2608C23.6676 51.5613 24.3769 51.8349 25.0988 52.0671C25.7518 52.2772 26.5563 52.3601 27.1053 52.7974C28.263 53.7192 27.8281 55.6324 27.6054 56.8725L27.5706 57.0682C27.4597 57.7064 27.3795 58.3611 27.6486 58.9735C27.9359 59.6277 28.5169 60.1129 29.0352 60.581L29.1398 60.6759C29.599 61.0942 30.1236 61.6025 30.4604 62.1695C30.7678 61.5339 31.1869 61.0145 31.63 60.4297C31.9462 60.0124 31.7212 59.8748 31.4941 59.4672C31.2754 59.0748 31.1687 58.6565 31.2371 58.2089C31.3632 57.3823 32.0239 56.7851 32.6815 56.3365C33.4582 55.8069 34.325 55.4145 35.1278 54.9218C36.7776 53.9095 38.3842 52.7522 39.8317 51.4668C39.8717 51.4312 39.9409 51.4778 39.9089 51.5263C38.7655 53.2655 37.4247 54.7684 35.777 56.044C35.1088 56.5613 34.407 56.9903 33.7004 57.4414L33.4973 57.5717C33.2136 57.7555 32.8597 58.0011 32.7314 58.314C32.6023 58.6286 32.8776 58.8662 33.0257 59.1269C33.4962 59.9547 33.2692 60.727 32.7115 61.429L32.6855 61.4613C32.1312 62.1444 31.7112 62.7796 31.5103 63.6521C31.0786 65.5266 31.6799 67.479 32.3093 69.2387L32.3341 69.3081C32.6746 70.2566 33.0364 71.1982 33.3322 72.1619L33.4136 72.4283C33.6816 73.315 33.9011 74.1896 33.6004 75.1011C33.4982 75.4112 33.0753 75.4844 32.8997 75.1926C32.2801 74.1636 32.1257 72.9253 31.7373 71.7939C31.3588 70.6913 30.9242 69.6086 30.5586 68.5015C30.0878 67.076 29.7727 65.5416 29.9437 64.0464C29.9387 64.0377 29.9331 64.0295 29.9289 64.0203L29.8091 63.7581C29.4823 63.0483 29.1666 62.4284 28.5723 61.8626C27.9524 61.2724 27.2796 60.7499 26.7918 60.0355C25.7323 58.4835 26.3876 56.7571 26.5156 55.0602L26.5302 54.8521C26.5534 54.4998 26.5662 54.021 26.336 53.7771C26.0772 53.5026 25.4701 53.4326 25.1266 53.311C24.2389 52.9969 23.3641 52.6309 22.5309 52.1913C21.7378 51.773 20.9696 51.3108 20.2543 50.7693L19.8917 50.4966C19.3197 50.065 18.7265 49.5936 18.3431 49.0061C18.2989 48.9385 18.374 48.8293 18.4542 48.8617C19.0942 49.1214 19.6789 49.5346 20.2778 49.894C20.2871 49.8721 20.2979 49.85 20.3102 49.8277C21.051 48.4869 21.3557 47.0013 21.2374 45.4762ZM41.6819 54.6629C41.9369 53.9637 43.0991 54.0177 43.0527 54.8485C43.0172 55.4868 42.7462 56.063 42.4984 56.6425L42.472 56.7046C42.2161 57.3085 41.9206 57.8754 41.5671 58.4288C40.8915 59.4868 40.1002 60.4686 39.255 61.3952C38.4887 62.2353 37.483 62.749 36.324 62.6636C35.8357 62.6277 35.3428 62.5034 34.9149 62.2595C34.4067 61.9697 33.8547 61.0995 33.2063 61.3103C33.1436 61.3306 33.0851 61.2388 33.1393 61.1953C33.8879 60.5925 34.7375 61.5271 35.4542 61.7523C36.534 62.0915 37.6422 61.7165 38.3373 60.8435C39.063 59.932 39.7309 58.9115 40.3408 57.919C40.6506 57.4151 40.9331 56.8921 41.1772 56.3531C41.4235 55.809 41.4795 55.2177 41.6819 54.6629ZM39.8824 51.0437C39.8424 50.9524 39.9099 50.8459 39.9798 50.8892C40.3855 51.1405 40.764 51.5021 41.1522 51.8085C41.5829 52.1485 42.0146 52.4796 42.4507 52.8036C43.0865 53.2761 42.6703 54.4431 42.088 53.9059C41.2911 53.1712 40.3843 52.1852 39.8824 51.0437ZM37.2608 49.6787C37.4605 49.3517 38.6416 49.4865 38.4695 49.8097L38.4638 49.8195C38.1378 50.3532 38.6021 50.8966 39.5933 51.2426L39.6298 51.2552C40.2568 51.4683 39.3684 51.8408 38.7476 51.6297C37.3922 51.1692 36.8283 50.3868 37.2608 49.6787Z" fill="#111827"/>
</g>
</svg>
