<svg width="766" height="646" viewBox="0 0 766 646" fill="none" xmlns="http://www.w3.org/2000/svg">
<mask id="mask0_129_519" style="mask-type:alpha" maskUnits="userSpaceOnUse" x="0" y="0" width="766" height="646">
<rect width="766" height="646" fill="#D9D9D9"/>
</mask>
<g mask="url(#mask0_129_519)">
<path d="M660.646 96.442C728.003 156.181 739.231 235.846 748.066 320.219C756.9 404.592 758.568 456.586 704.818 518.307C651.068 580.027 577.238 645.269 479.315 628.82C381.393 612.371 288.355 520.137 215.206 436.062C142.056 351.987 119.229 290.292 113.57 208.446C107.911 126.6 127.37 64.2169 186.912 26.8324C246.454 -10.5522 316.534 7.60184 411.281 21.5238C506.027 35.4457 593.289 36.7031 660.646 96.442Z" fill="#FFF7ED"/>
<path d="M701.616 299.385C703.637 398.379 796.39 460.628 752.273 515.91C708.156 571.193 602.428 552.415 481.032 575.799C359.636 599.184 239.456 673.037 145.291 632.834C51.1268 592.631 25.7745 481.584 10.2096 374.785C-5.35526 267.985 -10.5527 164.147 67.4668 98.8359C145.486 33.5244 265.367 63.806 400.307 48.2273C535.247 32.6487 681.904 -29.289 742.166 20.9426C802.428 71.1742 699.594 200.392 701.616 299.385Z" fill="#FFEDD5"/>
</g>
</svg>
